<svg xmlns="http://www.w3.org/2000/svg" viewBox="0 0 64 64" role="img" aria-label="Tournament variance simulator">
  <defs>
    <linearGradient id="bg" x1="10" y1="4" x2="54" y2="60" gradientUnits="userSpaceOnUse">
      <stop offset="0" stop-color="#172b38"/>
      <stop offset="1" stop-color="#071017"/>
    </linearGradient>
    <linearGradient id="gold" x1="13" y1="45" x2="52" y2="18" gradientUnits="userSpaceOnUse">
      <stop offset="0" stop-color="#f2b84b"/>
      <stop offset="0.55" stop-color="#ffe26b"/>
      <stop offset="1" stop-color="#fff3a8"/>
    </linearGradient>
    <linearGradient id="rail" x1="12" y1="50" x2="54" y2="18" gradientUnits="userSpaceOnUse">
      <stop offset="0" stop-color="#2dd4bf"/>
      <stop offset="1" stop-color="#facc15"/>
    </linearGradient>
    <filter id="glow" x="-30%" y="-30%" width="160%" height="160%">
      <feGaussianBlur stdDeviation="1.4" result="blur"/>
      <feMerge>
        <feMergeNode in="blur"/>
        <feMergeNode in="SourceGraphic"/>
      </feMerge>
    </filter>
  </defs>

  <rect width="64" height="64" rx="15" fill="url(#bg)"/>
  <rect x="3.5" y="3.5" width="57" height="57" rx="12.5" fill="none" stroke="#24475a" stroke-width="2"/>

  <path
    d="M32 13.5c-7.2 7-15 12.7-15 21.2 0 5.4 3.9 9.5 8.8 9.5 2.7 0 4.7-1.1 6.2-3.1 1.5 2 3.5 3.1 6.2 3.1 4.9 0 8.8-4.1 8.8-9.5 0-8.5-7.8-14.2-15-21.2Z"
    fill="url(#gold)"
  />
  <path d="M27.7 44.4h8.6l3.3 7.4H24.4l3.3-7.4Z" fill="url(#gold)"/>

  <path
    d="M12.5 45.5 21 39l7.2 3.4 8.2-13.6 7.1 5.1 8.2-14.5"
    fill="none"
    stroke="url(#rail)"
    stroke-width="4.4"
    stroke-linecap="round"
    stroke-linejoin="round"
    filter="url(#glow)"
  />
  <path
    d="M12.5 45.5 21 39l7.2 3.4 8.2-13.6 7.1 5.1 8.2-14.5"
    fill="none"
    stroke="#081018"
    stroke-opacity="0.42"
    stroke-width="1.4"
    stroke-linecap="round"
    stroke-linejoin="round"
  />
  <circle cx="51.7" cy="19.4" r="3.2" fill="#fff3a8"/>
</svg>
